<svg width="42" height="42" viewBox="0 0 42 42" fill="none" xmlns="http://www.w3.org/2000/svg">
<path d="M29.5171 8.13283H26.7808C26.3602 8.13102 25.9521 8.27625 25.6273 8.54341C25.3023 8.81055 25.0809 9.18284 25.0013 9.59592C24.9218 10.009 24.989 10.4369 25.1914 10.8056C25.3939 11.1744 25.7188 11.4608 26.1099 11.6154L28.8871 12.726C29.2771 12.8812 29.6007 13.1674 29.8023 13.5355C30.0039 13.9035 30.071 14.3303 29.992 14.7424C29.9129 15.1545 29.6927 15.5262 29.3693 15.7935C29.0458 16.0608 28.6393 16.207 28.2195 16.207H25.48" stroke="white" stroke-width="2.63" stroke-linecap="round" stroke-linejoin="round"/>
<path d="M27.5 8.13116V6.17578" stroke="white" stroke-width="2.63" stroke-linecap="round" stroke-linejoin="round"/>
<path d="M27.5 17.9524V16.207" stroke="white" stroke-width="2.63" stroke-linecap="round" stroke-linejoin="round"/>
<path d="M18.2422 12.1699C18.2422 14.6237 19.2171 16.977 20.9522 18.712C22.6872 20.4471 25.0404 21.4218 27.4941 21.4218C29.948 21.4218 32.3012 20.4471 34.0363 18.712C35.7714 16.977 36.7461 14.6237 36.7461 12.1699C36.7461 9.71615 35.7714 7.36289 34.0363 5.6278C32.3012 3.89273 29.948 2.91797 27.4941 2.91797C25.0404 2.91797 22.6872 3.89273 20.9522 5.6278C19.2171 7.36289 18.2422 9.71615 18.2422 12.1699Z" stroke="white" stroke-width="2.63" stroke-linecap="round" stroke-linejoin="round"/>
<path d="M26.2525 29.8922L36.451 26.6343L36.5215 26.6146C37.0952 26.489 37.6951 26.5762 38.209 26.8604C38.7229 27.1445 39.116 27.6059 39.3146 28.1586C39.5133 28.7111 39.5041 29.3172 39.2887 29.8635C39.0732 30.4099 38.6664 30.859 38.1439 31.1274C18.2341 41.4358 23.3129 40.9699 2.54688 34.0523" stroke="white" stroke-width="2.63" stroke-linecap="round" stroke-linejoin="round"/>
<path d="M2.54688 21.4189H6.15579C10.3505 21.3761 14.4198 22.8487 17.6157 25.5659L17.683 25.6249H24.4087C25.0796 25.6249 25.723 25.8913 26.1974 26.3657C26.6717 26.8401 26.9382 27.4835 26.9382 28.1544C26.9387 28.8232 26.6741 29.4651 26.2025 29.9395C25.731 30.4138 25.0906 30.6821 24.4218 30.6856L14.1955 30.7364" stroke="white" stroke-width="2.63" stroke-linecap="round" stroke-linejoin="round"/>
</svg>
