<svg width="42" height="42" viewBox="0 0 42 42" fill="none" xmlns="http://www.w3.org/2000/svg">
<path d="M5.23438 12.041L8.28126 5.25045C8.56144 4.50257 9.06348 3.85818 9.72013 3.4036C10.3768 2.94904 11.1567 2.70598 11.9553 2.70703H27.4283C28.2269 2.70647 29.0065 2.94972 29.6631 3.40423C30.3197 3.85874 30.8218 4.50287 31.1025 5.25045L34.151 12.0445" stroke="white" stroke-width="2.63" stroke-linecap="round" stroke-linejoin="round"/>
<path d="M2.71094 23.2656V26.2272C2.71094 26.9202 2.98625 27.5848 3.4763 28.0748C3.96635 28.5648 4.63102 28.8403 5.32405 28.8403C6.01709 28.8403 6.68174 28.5648 7.17179 28.0748C7.66184 27.5848 7.93715 26.9202 7.93715 26.2272V23.6141" stroke="white" stroke-width="2.63" stroke-linecap="round" stroke-linejoin="round"/>
<path d="M37.2851 14.4686C36.8261 13.6736 36.1658 13.0135 35.3708 12.5548C34.5756 12.0961 33.6736 11.8549 32.7557 11.8555H6.62466C5.23857 11.8555 3.90927 12.4061 2.92916 13.3862C1.94906 14.3663 1.39844 15.6956 1.39844 17.0817V21.0014C1.39844 21.6944 1.67375 22.3591 2.1638 22.8491C2.65385 23.3391 3.3185 23.6145 4.01154 23.6145H14.464" stroke="white" stroke-width="2.63" stroke-linecap="round" stroke-linejoin="round"/>
<path d="M30.1477 39.2915C35.9204 39.2915 40.6001 34.6118 40.6001 28.8391C40.6001 23.0664 35.9204 18.3867 30.1477 18.3867C24.375 18.3867 19.6953 23.0664 19.6953 28.8391C19.6953 34.6118 24.375 39.2915 30.1477 39.2915Z" stroke="white" stroke-width="2.63" stroke-linecap="round" stroke-linejoin="round"/>
<path d="M34.8081 25.8008L29.7475 32.5495C29.6348 32.6993 29.4915 32.823 29.3271 32.9124C29.1626 33.002 28.9808 33.0551 28.7941 33.0684C28.6072 33.0815 28.4198 33.0545 28.2444 32.9891C28.0689 32.9236 27.9096 32.8213 27.7772 32.689L25.1641 30.0759" stroke="white" stroke-width="2.63" stroke-linecap="round" stroke-linejoin="round"/>
<path d="M7.28609 18.3887C6.92529 18.3887 6.63281 18.0962 6.63281 17.7354C6.63281 17.3745 6.92529 17.082 7.28609 17.082" stroke="white" stroke-width="2.63"/>
<path d="M7.28125 18.3887C7.64205 18.3887 7.93453 18.0962 7.93453 17.7354C7.93453 17.3745 7.64205 17.082 7.28125 17.082" stroke="white" stroke-width="2.63"/>
</svg>
