<svg width="42" height="42" viewBox="0 0 42 42" fill="none" xmlns="http://www.w3.org/2000/svg">
<path d="M36.9959 32.8945H5.00782V15.4241C5.00718 15.046 5.09425 14.6729 5.2622 14.3342C5.43012 13.9955 5.67435 13.7003 5.97566 13.472L19.5091 3.05532C19.9379 2.72805 20.4625 2.55078 21.0019 2.55078C21.5412 2.55078 22.0659 2.72805 22.4947 3.05532L36.0281 13.472C36.3294 13.7003 36.5737 13.9955 36.7415 14.3342C36.9095 14.6729 36.9966 15.046 36.9959 15.4241V32.8945Z" stroke="white" stroke-width="2.63" stroke-linecap="round" stroke-linejoin="round"/>
<path d="M5.00781 39.4531H36.9959" stroke="white" stroke-width="2.63" stroke-linecap="round" stroke-linejoin="round"/>
<path d="M21.8725 11.6339L23.923 15.6693H27.4171C27.6065 15.6707 27.7913 15.7276 27.9487 15.833C28.1061 15.9384 28.2291 16.0877 28.3024 16.2623C28.3757 16.437 28.3962 16.6293 28.3613 16.8155C28.3264 17.0017 28.2376 17.1735 28.1061 17.3097L24.8252 20.4593L26.5969 24.5275C26.6761 24.7145 26.6943 24.9219 26.6492 25.1199C26.6041 25.3179 26.4978 25.4969 26.3454 25.631C26.193 25.7654 26.0021 25.8482 25.8 25.8681C25.5977 25.8879 25.3944 25.8436 25.2189 25.7414L21.003 23.33L16.7215 25.7414C16.546 25.8436 16.3427 25.8879 16.1405 25.8681C15.9383 25.8482 15.7475 25.7654 15.5951 25.631C15.4426 25.4969 15.3363 25.3179 15.2912 25.1199C15.2461 24.9219 15.2644 24.7145 15.3436 24.5275L17.1152 20.4593L13.8344 17.3097C13.7028 17.1735 13.614 17.0017 13.5791 16.8155C13.5442 16.6293 13.5647 16.437 13.638 16.2623C13.7114 16.0877 13.8343 15.9384 13.9917 15.833C14.1491 15.7276 14.334 15.6707 14.5234 15.6693H18.0175L20.068 11.6339C20.1446 11.4582 20.2708 11.3088 20.431 11.2038C20.5913 11.0989 20.7786 11.043 20.9702 11.043C21.1618 11.043 21.3492 11.0989 21.5094 11.2038C21.6697 11.3088 21.7959 11.4582 21.8725 11.6339Z" stroke="white" stroke-width="2.63" stroke-linecap="round" stroke-linejoin="round"/>
</svg>
