<svg width="42" height="42" viewBox="0 0 42 42" fill="none" xmlns="http://www.w3.org/2000/svg">
<g clip-path="url(#clip0_1886_223)">
<path d="M7.01562 24.9375C7.01562 27.0261 7.84532 29.0292 9.32216 30.506C10.799 31.9828 12.8021 32.8125 14.8906 32.8125C16.9792 32.8125 18.9823 31.9828 20.4591 30.506C21.936 29.0292 22.7656 27.0261 22.7656 24.9375C22.7656 22.8489 21.936 20.8458 20.4591 19.369C18.9823 17.8922 16.9792 17.0625 14.8906 17.0625C12.8021 17.0625 10.799 17.8922 9.32216 19.369C7.84532 20.8458 7.01562 22.8489 7.01562 24.9375Z" stroke="white" stroke-width="2.63" stroke-linecap="round" stroke-linejoin="round"/>
<path d="M14.8906 17.0625V24.9375L20.4731 30.5025" stroke="white" stroke-width="2.63" stroke-linecap="round" stroke-linejoin="round"/>
<path d="M28.8906 17.9375H34.1406" stroke="white" stroke-width="2.63" stroke-linecap="round" stroke-linejoin="round"/>
<path d="M28.8906 24.9375H34.1406" stroke="white" stroke-width="2.63" stroke-linecap="round" stroke-linejoin="round"/>
<path d="M28.8906 31.9375H34.1406" stroke="white" stroke-width="2.63" stroke-linecap="round" stroke-linejoin="round"/>
<path d="M3.9375 3.5H38.0625C38.0625 3.5 40.6875 3.5 40.6875 6.125V35.875C40.6875 35.875 40.6875 38.5 38.0625 38.5H3.9375C3.9375 38.5 1.3125 38.5 1.3125 35.875V6.125C1.3125 6.125 1.3125 3.5 3.9375 3.5Z" stroke="white" stroke-width="2.63" stroke-linecap="round" stroke-linejoin="round"/>
<path d="M1.3125 11.375H40.6875" stroke="white" stroke-width="2.63" stroke-linecap="round" stroke-linejoin="round"/>
</g>
<defs>
<clipPath id="clip0_1886_223">
<rect width="42" height="42" fill="white"/>
</clipPath>
</defs>
</svg>
