<svg width="730" height="150" viewBox="0 0 730 150" fill="none" xmlns="http://www.w3.org/2000/svg">
<path d="M63.2479 147.975C46.3479 145.575 34.9479 139.775 22.1479 126.975C14.4479 119.375 12.3479 116.475 8.44792 108.475C1.74792 94.975 -0.652082 84.575 0.147918 72.475C1.24792 54.075 5.64792 41.575 16.0479 27.975C24.7479 16.575 39.8479 6.475 55.2479 1.875C63.5479 -0.625 84.5479 -0.625 93.7479 1.875C114.848 7.675 132.748 22.475 142.348 42.175C149.148 56.175 151.448 75.975 147.848 90.475C140.448 120.375 117.648 142.375 88.0479 148.075C79.2479 149.675 75.4479 149.675 63.2479 147.975ZM78.4479 139.275C79.5479 137.975 81.2479 135.475 82.1479 133.775L83.8479 130.475H74.7479H65.6479L67.3479 133.775C69.5479 138.175 72.7479 141.475 74.7479 141.475C75.6479 141.475 77.3479 140.475 78.4479 139.275ZM63.8479 135.375C61.3479 129.975 61.1479 129.775 54.2479 129.075L48.2479 128.475L52.4479 132.375C56.6479 136.175 62.1479 139.375 64.4479 139.475C65.2479 139.475 65.0479 138.175 63.8479 135.375ZM93.1479 135.575C95.4479 133.975 98.0479 131.775 99.0479 130.675C100.948 128.575 100.948 128.575 95.0479 129.175C88.3479 129.775 88.1479 129.975 85.6479 135.475L83.7479 139.675L86.4479 139.075C87.8479 138.675 90.9479 137.075 93.1479 135.575ZM45.4479 131.675C41.8479 127.975 39.4479 126.475 35.9479 125.675C33.3479 125.075 31.1479 124.775 30.9479 124.975C30.1479 125.675 47.2479 136.475 49.2479 136.475C49.7479 136.475 48.0479 134.275 45.4479 131.675ZM103.048 135.375C106.648 133.475 118.848 125.275 118.548 124.975C118.248 124.575 107.548 127.275 107.348 127.675C107.248 127.875 105.448 129.875 103.248 132.275C99.2479 136.575 99.1479 137.375 103.048 135.375ZM86.5479 119.975C87.2479 116.675 88.4479 110.175 89.0479 105.475C90.0479 98.875 90.6479 96.875 92.0479 96.675C93.3479 96.375 93.7479 96.975 93.7479 99.175C93.7479 101.975 91.1479 118.975 90.0479 123.375C89.4479 125.775 89.4479 125.775 95.6479 125.075C104.748 124.075 106.348 123.175 109.748 117.275C113.048 111.475 119.148 93.875 118.448 91.975C118.148 91.375 120.748 89.475 124.148 87.675C127.448 85.875 132.748 82.775 135.748 80.675L141.248 76.975L141.148 69.975C140.948 61.175 137.948 50.275 133.248 41.975C129.748 35.575 128.448 34.475 127.248 36.475C126.848 37.075 124.848 38.375 122.748 39.475L118.848 41.475L120.848 48.175C123.248 56.575 123.248 57.475 120.848 57.475C119.348 57.475 118.648 56.075 117.248 50.475C116.348 46.575 115.248 43.475 114.948 43.475C114.448 43.475 100.448 46.075 95.9479 47.075C93.8479 47.475 93.6479 47.975 93.9479 52.275C94.1479 55.975 93.9479 56.975 92.6479 57.275C90.9479 57.575 89.7479 54.875 89.7479 50.475V47.975H74.8479H59.9479L59.3479 52.975C59.0479 55.775 58.7479 60.075 58.7479 62.775C58.7479 66.875 58.4479 67.475 56.5479 67.475C54.5479 67.475 54.4479 67.275 55.0479 57.475C55.6479 47.775 55.6479 47.475 53.4479 47.075C44.6479 45.175 34.4479 43.375 34.2479 43.675C33.4479 44.475 30.6479 57.075 30.0479 62.475C29.6479 67.175 28.9479 68.775 27.4479 69.675C25.4479 70.675 25.4479 70.475 26.0479 62.875C26.3479 58.475 27.5479 52.075 28.6479 48.475C30.5479 42.575 30.6479 41.875 29.1479 40.975C28.2479 40.475 25.9479 38.975 24.0479 37.675C20.6479 35.475 20.4479 35.475 19.1479 37.175C13.8479 43.875 9.04792 57.675 8.14792 68.975C7.54792 75.575 7.64792 76.075 10.0479 78.275C11.6479 79.775 12.3479 81.275 12.0479 82.575C11.5479 84.175 11.2479 84.275 9.94792 83.275C8.54792 82.075 8.44792 82.475 9.04792 86.775C10.6479 98.175 19.5479 114.775 25.8479 117.975C29.0479 119.675 37.7479 122.575 37.7479 121.975C37.7479 121.775 36.8479 120.075 35.7479 118.275C33.7479 114.775 29.4479 103.875 28.3479 99.275C27.8479 96.975 28.0479 96.475 29.5479 96.475C31.0479 96.475 32.0479 98.075 33.7479 103.275C36.6479 111.975 41.5479 121.375 44.1479 122.975C46.2479 124.275 59.7479 126.175 59.7479 125.175C59.7479 124.875 59.1479 121.575 58.3479 117.775C57.5479 114.075 56.5479 107.675 56.1479 103.575C55.5479 96.775 55.5479 96.275 57.3479 96.675C58.8479 96.875 59.4479 98.275 60.0479 102.975C60.9479 110.375 63.7479 124.575 64.4479 125.675C64.6479 126.175 69.4479 126.375 75.0479 126.275L85.2479 125.975L86.5479 119.975ZM122.748 118.175C126.048 116.575 128.348 114.175 131.348 109.675C135.548 103.375 140.748 89.675 140.748 84.975C140.748 82.475 140.748 82.475 138.248 84.075C136.848 84.975 132.948 86.775 129.548 87.975L123.348 90.175L121.048 98.875C119.848 103.675 117.248 110.775 115.248 114.675L111.848 121.675L115.048 121.075C116.848 120.775 120.248 119.475 122.748 118.175ZM88.3479 43.175C89.3479 42.175 87.0479 29.575 84.2479 20.775C80.1479 7.675 74.1479 4.075 69.0479 11.675C66.4479 15.575 62.2479 29.575 61.2479 37.675C60.5479 43.275 60.5479 43.275 63.3479 43.775C67.3479 44.475 87.5479 43.975 88.3479 43.175ZM58.3479 31.575C59.5479 25.575 61.6479 18.075 63.1479 14.875C64.5479 11.775 65.6479 8.975 65.4479 8.775C64.8479 8.275 55.9479 13.175 52.1479 16.275C45.1479 21.775 35.2479 37.375 37.3479 39.475C38.3479 40.475 54.8479 43.475 55.6479 42.775C55.9479 42.575 57.1479 37.575 58.3479 31.575ZM108.548 40.575C110.848 39.875 112.748 38.875 112.748 38.275C112.748 35.575 105.348 24.275 100.348 19.375C95.4479 14.575 84.9479 7.975 83.8479 8.975C83.6479 9.275 84.1479 10.475 85.0479 11.775C87.0479 14.875 90.1479 25.275 91.6479 33.975C92.3479 37.875 93.0479 41.475 93.2479 42.075C93.6479 43.275 101.248 42.475 108.548 40.575ZM35.6479 30.875C37.5479 27.175 41.5479 21.575 44.5479 18.375C47.5479 15.075 49.6479 12.475 49.2479 12.475C46.7479 12.475 35.5479 19.775 29.9479 25.175L23.2479 31.475L26.5479 34.475C28.3479 36.075 30.3479 37.475 31.0479 37.475C31.6479 37.475 33.7479 34.475 35.6479 30.875ZM122.948 34.475L126.248 31.475L120.048 25.575C114.748 20.475 102.648 12.475 100.348 12.475C99.9479 12.475 102.048 15.275 105.148 18.575C108.148 21.975 112.148 27.575 113.948 31.075C115.748 34.575 117.848 37.475 118.448 37.475C119.148 37.475 121.148 36.075 122.948 34.475Z" fill="url(#paint0_linear_2042_890)"/>
<path d="M25.4479 89.375C16.6479 87.275 15.6479 84.875 21.8479 80.775C32.4479 73.675 30.6479 74.075 50.1479 73.675L68.2479 73.275L77.4479 68.375C85.0479 64.375 87.5479 63.475 91.7479 63.475H96.9479L93.7479 69.075C92.0479 72.175 90.7479 74.775 90.9479 74.975C91.1479 75.075 94.1479 75.475 97.7479 75.875L104.248 76.575L111.248 70.075C117.248 64.475 118.848 63.575 122.048 63.475C124.048 63.475 125.748 63.675 125.748 63.875C125.748 64.075 124.648 67.275 123.248 70.875C121.848 74.575 120.748 77.775 120.748 78.075C120.748 78.275 121.748 78.875 122.848 79.375C124.848 80.075 124.748 80.275 121.448 82.275C119.448 83.375 114.548 85.575 110.548 87.175L103.248 89.975L69.8479 90.275C43.0479 90.575 36.2479 90.375 35.6479 89.275C34.9479 88.275 34.7479 88.275 34.7479 89.275C34.7479 90.675 31.1479 90.675 25.4479 89.375Z" fill="url(#paint1_linear_2042_890)"/>
<path d="M266.561 125.964H195.748V23H266.561V42.8168H218.613V64.8505H258.524V84.6673H218.613V106.147H266.561V125.964Z" fill="url(#paint2_linear_2042_890)"/>
<path d="M338.125 113.219L323.574 90.3527L320.11 84.9483L316.784 90.3527L302.233 113.219H280.892L306.252 73.3086L283.941 37H306.806L317.892 55.016L320.11 58.7572L322.466 55.016L333.552 37H356.418L334.106 73.3086L359.466 113.219H338.125Z" fill="url(#paint3_linear_2042_890)"/>
<path d="M452.871 62.4954C452.871 84.2526 435.271 101.991 413.514 101.991C406.308 101.991 399.517 100.05 393.836 96.7246V126.796H374.019V62.9101V62.4954C374.019 40.7381 391.619 23 413.514 23C435.271 23 452.871 40.7381 452.871 62.4954ZM433.054 62.4954C433.054 51.6852 424.323 42.8175 413.514 42.8175C402.566 42.8175 393.836 51.6852 393.836 62.4954C393.836 73.3042 402.566 82.1732 413.514 82.1732C424.323 82.1732 433.054 73.3042 433.054 62.4954Z" fill="url(#paint4_linear_2042_890)"/>
<path d="M470.308 23H490.125V125.964H470.308V23Z" fill="url(#paint5_linear_2042_890)"/>
<path d="M586.901 74.4954C586.901 96.2526 569.302 113.991 547.544 113.991C525.788 113.991 508.05 96.2526 508.05 74.4954C508.05 52.7382 525.788 35 547.544 35C569.302 35 586.901 52.7382 586.901 74.4954ZM567.223 74.4954C567.223 63.6852 558.354 54.8175 547.544 54.8175C536.597 54.8175 527.867 63.6852 527.867 74.4954C527.867 85.3042 536.597 94.1732 547.544 94.1732C558.354 94.1732 567.223 85.3042 567.223 74.4954Z" fill="url(#paint6_linear_2042_890)"/>
<path d="M679.404 74.4954C679.404 96.2526 661.805 113.991 640.047 113.991C618.291 113.991 600.553 96.2526 600.553 74.4954C600.553 52.7382 618.291 35 640.047 35C661.805 35 679.404 52.7382 679.404 74.4954ZM659.726 74.4954C659.726 63.6852 650.857 54.8175 640.047 54.8175C629.1 54.8175 620.37 63.6852 620.37 74.4954C620.37 85.3042 629.1 94.1732 640.047 94.1732C650.857 94.1732 659.726 85.3042 659.726 74.4954Z" fill="url(#paint7_linear_2042_890)"/>
<path d="M729.936 36V55.8175C721.899 55.8175 715.385 62.3307 715.385 70.3675V113.466H695.569V70.3675C695.569 51.3823 710.951 36 729.936 36Z" fill="url(#paint8_linear_2042_890)"/>
<defs>
<linearGradient id="paint0_linear_2042_890" x1="74.7687" y1="0" x2="74.7687" y2="149.263" gradientUnits="userSpaceOnUse">
<stop stop-color="white"/>
<stop offset="0.3" stop-color="#FABA01"/>
<stop offset="1" stop-color="#FABA01"/>
</linearGradient>
<linearGradient id="paint1_linear_2042_890" x1="71.8192" y1="63.475" x2="71.8192" y2="90.4008" gradientUnits="userSpaceOnUse">
<stop stop-color="white"/>
<stop offset="0.3" stop-color="#FABA01"/>
<stop offset="1" stop-color="#FABA01"/>
</linearGradient>
<linearGradient id="paint2_linear_2042_890" x1="231.155" y1="23" x2="231.155" y2="125.964" gradientUnits="userSpaceOnUse">
<stop stop-color="white"/>
<stop offset="0.3" stop-color="#FDDE84"/>
<stop offset="1" stop-color="#FABA01"/>
</linearGradient>
<linearGradient id="paint3_linear_2042_890" x1="320.179" y1="37" x2="320.179" y2="113.219" gradientUnits="userSpaceOnUse">
<stop stop-color="white"/>
<stop offset="0.3" stop-color="#FDDE84"/>
<stop offset="1" stop-color="#FABA01"/>
</linearGradient>
<linearGradient id="paint4_linear_2042_890" x1="413.445" y1="23" x2="413.445" y2="126.796" gradientUnits="userSpaceOnUse">
<stop stop-color="white"/>
<stop offset="0.3" stop-color="#FDDE84"/>
<stop offset="1" stop-color="#FABA01"/>
</linearGradient>
<linearGradient id="paint5_linear_2042_890" x1="480.216" y1="23" x2="480.216" y2="125.964" gradientUnits="userSpaceOnUse">
<stop stop-color="white"/>
<stop offset="0.3" stop-color="#FDDE84"/>
<stop offset="1" stop-color="#FABA01"/>
</linearGradient>
<linearGradient id="paint6_linear_2042_890" x1="547.475" y1="35" x2="547.475" y2="113.991" gradientUnits="userSpaceOnUse">
<stop stop-color="white"/>
<stop offset="0.3" stop-color="#FDDE84"/>
<stop offset="1" stop-color="#FABA01"/>
</linearGradient>
<linearGradient id="paint7_linear_2042_890" x1="639.978" y1="35" x2="639.978" y2="113.991" gradientUnits="userSpaceOnUse">
<stop stop-color="white"/>
<stop offset="0.3" stop-color="#FDDE84"/>
<stop offset="1" stop-color="#FABA01"/>
</linearGradient>
<linearGradient id="paint8_linear_2042_890" x1="712.752" y1="36" x2="712.752" y2="113.466" gradientUnits="userSpaceOnUse">
<stop stop-color="white"/>
<stop offset="0.3" stop-color="#FDDE84"/>
<stop offset="1" stop-color="#FABA01"/>
</linearGradient>
</defs>
</svg>
